<?xml version="1.0" encoding="UTF-8"?>
<!DOCTYPE svg
PUBLIC "-//W3C//DTD SVG 1.1//EN"
       "http://www.w3.org/Graphics/SVG/1.1/DTD/svg11.dtd">
<svg viewBox="68 5 1379 788" width="1311px" height="783px" xmlns="http://www.w3.org/2000/svg" version="1.1">
   <line x1="965" y1="176" x2="955" y2="176" style="stroke:#c00;stroke-width:1;"/>
   <line x1="692" y1="93" x2="682" y2="93" style="stroke:#c00;stroke-width:1;"/>
   <line x1="955" y1="176" x2="692" y2="93" style="stroke:#c00;stroke-width:1;"/>
   <line x1="957.5" y1="176" x2="961.03553390593" y2="179.53553390593" style="stroke:#c00;stroke-width:2;"/>
   <line x1="957.5" y1="176" x2="961.03553390593" y2="172.46446609407" style="stroke:#c00;stroke-width:2;"/>
   <line x1="687" y1="93" x2="690.53553390593" y2="96.535533905933" style="stroke:#c00;stroke-width:2;"/>
   <line x1="687" y1="93" x2="690.53553390593" y2="89.464466094067" style="stroke:#c00;stroke-width:2;"/>
   <line x1="221" y1="487" x2="231" y2="487" style="stroke:#0b0;stroke-width:1;"/>
   <line x1="566" y1="421" x2="576" y2="421" style="stroke:#0b0;stroke-width:1;"/>
   <line x1="231" y1="487" x2="566" y2="421" style="stroke:#0b0;stroke-width:1;"/>
   <line x1="228.5" y1="487" x2="224.96446609407" y2="490.53553390593" style="stroke:#0b0;stroke-width:2;"/>
   <line x1="228.5" y1="487" x2="224.96446609407" y2="483.46446609407" style="stroke:#0b0;stroke-width:2;"/>
   <line x1="571" y1="421" x2="567.46446609407" y2="424.53553390593" style="stroke:#0b0;stroke-width:2;"/>
   <line x1="571" y1="421" x2="567.46446609407" y2="417.46446609407" style="stroke:#0b0;stroke-width:2;"/>
   <line x1="221" y1="467" x2="231" y2="467" style="stroke:#bbb;stroke-width:1;"/>
   <line x1="554" y1="93" x2="564" y2="93" style="stroke:#bbb;stroke-width:1;"/>
   <line x1="231" y1="467" x2="554" y2="93" style="stroke:#bbb;stroke-width:1;"/>
   <line x1="228.5" y1="467" x2="224.96446609407" y2="470.53553390593" style="stroke:#bbb;stroke-width:2;"/>
   <line x1="228.5" y1="467" x2="224.96446609407" y2="463.46446609407" style="stroke:#bbb;stroke-width:2;"/>
   <line x1="559" y1="93" x2="555.46446609407" y2="96.535533905933" style="stroke:#bbb;stroke-width:2;"/>
   <line x1="559" y1="93" x2="555.46446609407" y2="89.464466094067" style="stroke:#bbb;stroke-width:2;"/>
   <line x1="577" y1="763" x2="567" y2="763" style="stroke:#bbb;stroke-width:1;"/>
   <line x1="221" y1="594" x2="211" y2="594" style="stroke:#bbb;stroke-width:1;"/>
   <line x1="567" y1="763" x2="221" y2="594" style="stroke:#bbb;stroke-width:1;"/>
   <line x1="569.5" y1="763" x2="573.03553390593" y2="766.53553390593" style="stroke:#bbb;stroke-width:2;"/>
   <line x1="569.5" y1="763" x2="573.03553390593" y2="759.46446609407" style="stroke:#bbb;stroke-width:2;"/>
   <line x1="216" y1="594" x2="219.53553390593" y2="597.53553390593" style="stroke:#bbb;stroke-width:2;"/>
   <line x1="216" y1="594" x2="219.53553390593" y2="590.46446609407" style="stroke:#bbb;stroke-width:2;"/>
   <line x1="671" y1="743" x2="681" y2="743" style="stroke:#333;stroke-width:1;"/>
   <line x1="692" y1="93" x2="682" y2="93" style="stroke:#333;stroke-width:1;"/>
   <line x1="681" y1="743" x2="692" y2="93" style="stroke:#333;stroke-width:1;"/>
   <line x1="678.5" y1="743" x2="674.96446609407" y2="746.53553390593" style="stroke:#333;stroke-width:2;"/>
   <line x1="678.5" y1="743" x2="674.96446609407" y2="739.46446609407" style="stroke:#333;stroke-width:2;"/>
   <line x1="687" y1="93" x2="690.53553390593" y2="96.535533905933" style="stroke:#333;stroke-width:2;"/>
   <line x1="687" y1="93" x2="690.53553390593" y2="89.464466094067" style="stroke:#333;stroke-width:2;"/>
   <line x1="225" y1="323" x2="235" y2="323" style="stroke:#0b0;stroke-width:1;"/>
   <line x1="554" y1="93" x2="564" y2="93" style="stroke:#0b0;stroke-width:1;"/>
   <line x1="235" y1="323" x2="554" y2="93" style="stroke:#0b0;stroke-width:1;"/>
   <line x1="232.5" y1="323" x2="228.96446609407" y2="326.53553390593" style="stroke:#0b0;stroke-width:2;"/>
   <line x1="232.5" y1="323" x2="228.96446609407" y2="319.46446609407" style="stroke:#0b0;stroke-width:2;"/>
   <line x1="559" y1="93" x2="555.46446609407" y2="96.535533905933" style="stroke:#0b0;stroke-width:2;"/>
   <line x1="559" y1="93" x2="555.46446609407" y2="89.464466094067" style="stroke:#0b0;stroke-width:2;"/>
   <line x1="211" y1="634" x2="221" y2="634" style="stroke:#c00;stroke-width:1;"/>
   <line x1="554" y1="93" x2="564" y2="93" style="stroke:#c00;stroke-width:1;"/>
   <line x1="221" y1="634" x2="554" y2="93" style="stroke:#c00;stroke-width:1;"/>
   <line x1="218.5" y1="634" x2="214.96446609407" y2="637.53553390593" style="stroke:#c00;stroke-width:2;"/>
   <line x1="218.5" y1="634" x2="214.96446609407" y2="630.46446609407" style="stroke:#c00;stroke-width:2;"/>
   <line x1="559" y1="93" x2="555.46446609407" y2="96.535533905933" style="stroke:#c00;stroke-width:2;"/>
   <line x1="559" y1="93" x2="555.46446609407" y2="89.464466094067" style="stroke:#c00;stroke-width:2;"/>
   <line x1="576" y1="541" x2="566" y2="541" style="stroke:#0bf;stroke-width:1;"/>
   <line x1="221" y1="594" x2="211" y2="594" style="stroke:#0bf;stroke-width:1;"/>
   <line x1="566" y1="541" x2="221" y2="594" style="stroke:#0bf;stroke-width:1;"/>
   <line x1="568.5" y1="541" x2="572.03553390593" y2="544.53553390593" style="stroke:#0bf;stroke-width:2;"/>
   <line x1="568.5" y1="541" x2="572.03553390593" y2="537.46446609407" style="stroke:#0bf;stroke-width:2;"/>
   <line x1="216" y1="594" x2="219.53553390593" y2="597.53553390593" style="stroke:#0bf;stroke-width:2;"/>
   <line x1="216" y1="594" x2="219.53553390593" y2="590.46446609407" style="stroke:#0bf;stroke-width:2;"/>
   <line x1="662" y1="561" x2="672" y2="561" style="stroke:#0b0;stroke-width:1;"/>
   <line x1="782" y1="602" x2="792" y2="602" style="stroke:#0b0;stroke-width:1;"/>
   <line x1="672" y1="561" x2="782" y2="602" style="stroke:#0b0;stroke-width:1;"/>
   <line x1="669.5" y1="561" x2="665.96446609407" y2="564.53553390593" style="stroke:#0b0;stroke-width:2;"/>
   <line x1="669.5" y1="561" x2="665.96446609407" y2="557.46446609407" style="stroke:#0b0;stroke-width:2;"/>
   <line x1="787" y1="602" x2="783.46446609407" y2="605.53553390593" style="stroke:#0b0;stroke-width:2;"/>
   <line x1="787" y1="602" x2="783.46446609407" y2="598.46446609407" style="stroke:#0b0;stroke-width:2;"/>
   <line x1="576" y1="521" x2="566" y2="521" style="stroke:#0b0;stroke-width:1;"/>
   <line x1="554" y1="93" x2="564" y2="93" style="stroke:#0b0;stroke-width:1;"/>
   <line x1="566" y1="521" x2="554" y2="93" style="stroke:#0b0;stroke-width:1;"/>
   <line x1="568.5" y1="521" x2="572.03553390593" y2="524.53553390593" style="stroke:#0b0;stroke-width:2;"/>
   <line x1="568.5" y1="521" x2="572.03553390593" y2="517.46446609407" style="stroke:#0b0;stroke-width:2;"/>
   <line x1="559" y1="93" x2="555.46446609407" y2="96.535533905933" style="stroke:#0b0;stroke-width:2;"/>
   <line x1="559" y1="93" x2="555.46446609407" y2="89.464466094067" style="stroke:#0b0;stroke-width:2;"/>
   <line x1="1016" y1="564" x2="1006" y2="564" style="stroke:#333;stroke-width:1;"/>
   <line x1="672" y1="421" x2="662" y2="421" style="stroke:#333;stroke-width:1;"/>
   <line x1="1006" y1="564" x2="672" y2="421" style="stroke:#333;stroke-width:1;"/>
   <line x1="1008.5" y1="564" x2="1012.0355339059" y2="567.53553390593" style="stroke:#333;stroke-width:2;"/>
   <line x1="1008.5" y1="564" x2="1012.0355339059" y2="560.46446609407" style="stroke:#333;stroke-width:2;"/>
   <line x1="667" y1="421" x2="670.53553390593" y2="424.53553390593" style="stroke:#333;stroke-width:2;"/>
   <line x1="667" y1="421" x2="670.53553390593" y2="417.46446609407" style="stroke:#333;stroke-width:2;"/>
   <line x1="1016" y1="584" x2="1006" y2="584" style="stroke:#0bf;stroke-width:1;"/>
   <line x1="1008" y1="672" x2="1018" y2="672" style="stroke:#0bf;stroke-width:1;"/>
   <line x1="1006" y1="584" x2="1008" y2="672" style="stroke:#0bf;stroke-width:1;"/>
   <line x1="1008.5" y1="584" x2="1012.0355339059" y2="587.53553390593" style="stroke:#0bf;stroke-width:2;"/>
   <line x1="1008.5" y1="584" x2="1012.0355339059" y2="580.46446609407" style="stroke:#0bf;stroke-width:2;"/>
   <line x1="1013" y1="672" x2="1009.4644660941" y2="675.53553390593" style="stroke:#0bf;stroke-width:2;"/>
   <line x1="1013" y1="672" x2="1009.4644660941" y2="668.46446609407" style="stroke:#0bf;stroke-width:2;"/>
   <line x1="792" y1="702" x2="782" y2="702" style="stroke:#333;stroke-width:1;"/>
   <line x1="692" y1="93" x2="682" y2="93" style="stroke:#333;stroke-width:1;"/>
   <line x1="782" y1="702" x2="692" y2="93" style="stroke:#333;stroke-width:1;"/>
   <line x1="784.5" y1="702" x2="788.03553390593" y2="705.53553390593" style="stroke:#333;stroke-width:2;"/>
   <line x1="784.5" y1="702" x2="788.03553390593" y2="698.46446609407" style="stroke:#333;stroke-width:2;"/>
   <line x1="687" y1="93" x2="690.53553390593" y2="96.535533905933" style="stroke:#333;stroke-width:2;"/>
   <line x1="687" y1="93" x2="690.53553390593" y2="89.464466094067" style="stroke:#333;stroke-width:2;"/>
   <line x1="1021" y1="474" x2="1011" y2="474" style="stroke:#bbb;stroke-width:1;"/>
   <line x1="692" y1="93" x2="682" y2="93" style="stroke:#bbb;stroke-width:1;"/>
   <line x1="1011" y1="474" x2="692" y2="93" style="stroke:#bbb;stroke-width:1;"/>
   <line x1="1013.5" y1="474" x2="1017.0355339059" y2="477.53553390593" style="stroke:#bbb;stroke-width:2;"/>
   <line x1="1013.5" y1="474" x2="1017.0355339059" y2="470.46446609407" style="stroke:#bbb;stroke-width:2;"/>
   <line x1="687" y1="93" x2="690.53553390593" y2="96.535533905933" style="stroke:#bbb;stroke-width:2;"/>
   <line x1="687" y1="93" x2="690.53553390593" y2="89.464466094067" style="stroke:#bbb;stroke-width:2;"/>
   <line x1="239" y1="130" x2="249" y2="130" style="stroke:#c00;stroke-width:1;"/>
   <line x1="554" y1="93" x2="564" y2="93" style="stroke:#c00;stroke-width:1;"/>
   <line x1="249" y1="130" x2="554" y2="93" style="stroke:#c00;stroke-width:1;"/>
   <line x1="246.5" y1="130" x2="242.96446609407" y2="133.53553390593" style="stroke:#c00;stroke-width:2;"/>
   <line x1="246.5" y1="130" x2="242.96446609407" y2="126.46446609407" style="stroke:#c00;stroke-width:2;"/>
   <line x1="559" y1="93" x2="555.46446609407" y2="96.535533905933" style="stroke:#c00;stroke-width:2;"/>
   <line x1="559" y1="93" x2="555.46446609407" y2="89.464466094067" style="stroke:#c00;stroke-width:2;"/>
   <line x1="682" y1="93" x2="692" y2="93" style="stroke:#bbb;stroke-width:1;"/>
   <line x1="956" y1="258" x2="966" y2="258" style="stroke:#bbb;stroke-width:1;"/>
   <line x1="692" y1="93" x2="956" y2="258" style="stroke:#bbb;stroke-width:1;"/>
   <line x1="689.5" y1="93" x2="685.96446609407" y2="96.535533905933" style="stroke:#bbb;stroke-width:2;"/>
   <line x1="689.5" y1="93" x2="685.96446609407" y2="89.464466094067" style="stroke:#bbb;stroke-width:2;"/>
   <line x1="961" y1="258" x2="957.46446609407" y2="261.53553390593" style="stroke:#bbb;stroke-width:2;"/>
   <line x1="961" y1="258" x2="957.46446609407" y2="254.46446609407" style="stroke:#bbb;stroke-width:2;"/>
   <rect width="114" height="20" x="965" y="66" style="fill:#007;stroke:black;"/>
   <text width="114" height="20" x="970" y="80" style="fill:#fff;" font-family="Arial" font-size="16px"> analyticsreport</text>
   <rect width="114" height="20" x="965" y="86" style="fill:#aea;stroke:black;"/>
   <text width="114" height="20" x="970" y="100" style="fill:black;" font-family="Arial" font-size="16px">id</text>
   <rect width="114" height="20" x="965" y="106" style="fill:none;stroke:black;"/>
   <text width="114" height="20" x="970" y="120" style="fill:black;" font-family="Arial" font-size="16px">report_type</text>
   <rect width="114" height="20" x="965" y="126" style="fill:none;stroke:black;"/>
   <text width="114" height="20" x="970" y="140" style="fill:black;" font-family="Arial" font-size="16px">data</text>
   <rect width="114" height="20" x="965" y="146" style="fill:none;stroke:black;"/>
   <text width="114" height="20" x="970" y="160" style="fill:black;" font-family="Arial" font-size="16px">generated_at</text>
   <rect width="114" height="20" x="965" y="166" style="fill:none;stroke:black;"/>
   <text width="114" height="20" x="970" y="180" style="fill:black;" font-family="Arial" font-size="16px">user_id</text>
   <rect width="81" height="20" x="140" y="377" style="fill:#007;stroke:black;"/>
   <text width="81" height="20" x="145" y="391" style="fill:#fff;" font-family="Arial" font-size="16px"> comment</text>
   <rect width="81" height="20" x="140" y="397" style="fill:#aea;stroke:black;"/>
   <text width="81" height="20" x="145" y="411" style="fill:black;" font-family="Arial" font-size="16px">id</text>
   <rect width="81" height="20" x="140" y="417" style="fill:none;stroke:black;"/>
   <text width="81" height="20" x="145" y="431" style="fill:black;" font-family="Arial" font-size="16px">content</text>
   <rect width="81" height="20" x="140" y="437" style="fill:none;stroke:black;"/>
   <text width="81" height="20" x="145" y="451" style="fill:black;" font-family="Arial" font-size="16px">created_at</text>
   <rect width="81" height="20" x="140" y="457" style="fill:none;stroke:black;"/>
   <text width="81" height="20" x="145" y="471" style="fill:black;" font-family="Arial" font-size="16px">user_id</text>
   <rect width="81" height="20" x="140" y="477" style="fill:none;stroke:black;"/>
   <text width="81" height="20" x="145" y="491" style="fill:black;" font-family="Arial" font-size="16px">note_id</text>
   <rect width="94" height="20" x="577" y="633" style="fill:#007;stroke:black;"/>
   <text width="94" height="20" x="582" y="647" style="fill:#fff;" font-family="Arial" font-size="16px"> document</text>
   <rect width="94" height="20" x="577" y="653" style="fill:#aea;stroke:black;"/>
   <text width="94" height="20" x="582" y="667" style="fill:black;" font-family="Arial" font-size="16px">id</text>
   <rect width="94" height="20" x="577" y="673" style="fill:none;stroke:black;"/>
   <text width="94" height="20" x="582" y="687" style="fill:black;" font-family="Arial" font-size="16px">file_name</text>
   <rect width="94" height="20" x="577" y="693" style="fill:none;stroke:black;"/>
   <text width="94" height="20" x="582" y="707" style="fill:black;" font-family="Arial" font-size="16px">file_path</text>
   <rect width="94" height="20" x="577" y="713" style="fill:none;stroke:black;"/>
   <text width="94" height="20" x="582" y="727" style="fill:black;" font-family="Arial" font-size="16px">upload_date</text>
   <rect width="94" height="20" x="577" y="733" style="fill:none;stroke:black;"/>
   <text width="94" height="20" x="582" y="747" style="fill:black;" font-family="Arial" font-size="16px">user_id</text>
   <rect width="94" height="20" x="577" y="753" style="fill:none;stroke:black;"/>
   <text width="94" height="20" x="582" y="767" style="fill:black;" font-family="Arial" font-size="16px">folder_id</text>
   <rect width="142" height="20" x="83" y="193" style="fill:#007;stroke:black;"/>
   <text width="142" height="20" x="88" y="207" style="fill:#fff;" font-family="Arial" font-size="16px"> externalintegration</text>
   <rect width="142" height="20" x="83" y="213" style="fill:#aea;stroke:black;"/>
   <text width="142" height="20" x="88" y="227" style="fill:black;" font-family="Arial" font-size="16px">id</text>
   <rect width="142" height="20" x="83" y="233" style="fill:none;stroke:black;"/>
   <text width="142" height="20" x="88" y="247" style="fill:black;" font-family="Arial" font-size="16px">name</text>
   <rect width="142" height="20" x="83" y="253" style="fill:none;stroke:black;"/>
   <text width="142" height="20" x="88" y="267" style="fill:black;" font-family="Arial" font-size="16px">api_key</text>
   <rect width="142" height="20" x="83" y="273" style="fill:none;stroke:black;"/>
   <text width="142" height="20" x="88" y="287" style="fill:black;" font-family="Arial" font-size="16px">last_sync</text>
   <rect width="142" height="20" x="83" y="293" style="fill:none;stroke:black;"/>
   <text width="142" height="20" x="88" y="307" style="fill:black;" font-family="Arial" font-size="16px">status</text>
   <rect width="142" height="20" x="83" y="313" style="fill:none;stroke:black;"/>
   <text width="142" height="20" x="88" y="327" style="fill:black;" font-family="Arial" font-size="16px">user_id</text>
   <rect width="58" height="20" x="153" y="564" style="fill:#007;stroke:black;"/>
   <text width="58" height="20" x="158" y="578" style="fill:#fff;" font-family="Arial" font-size="16px"> folder</text>
   <rect width="58" height="20" x="153" y="584" style="fill:#aea;stroke:black;"/>
   <text width="58" height="20" x="158" y="598" style="fill:black;" font-family="Arial" font-size="16px">id</text>
   <rect width="58" height="20" x="153" y="604" style="fill:none;stroke:black;"/>
   <text width="58" height="20" x="158" y="618" style="fill:black;" font-family="Arial" font-size="16px">name</text>
   <rect width="58" height="20" x="153" y="624" style="fill:none;stroke:black;"/>
   <text width="58" height="20" x="158" y="638" style="fill:black;" font-family="Arial" font-size="16px">user_id</text>
   <rect width="86" height="20" x="576" y="391" style="fill:#007;stroke:black;"/>
   <text width="86" height="20" x="581" y="405" style="fill:#fff;" font-family="Arial" font-size="16px"> note</text>
   <rect width="86" height="20" x="576" y="411" style="fill:#aea;stroke:black;"/>
   <text width="86" height="20" x="581" y="425" style="fill:black;" font-family="Arial" font-size="16px">id</text>
   <rect width="86" height="20" x="576" y="431" style="fill:none;stroke:black;"/>
   <text width="86" height="20" x="581" y="445" style="fill:black;" font-family="Arial" font-size="16px">title</text>
   <rect width="86" height="20" x="576" y="451" style="fill:none;stroke:black;"/>
   <text width="86" height="20" x="581" y="465" style="fill:black;" font-family="Arial" font-size="16px">content</text>
   <rect width="86" height="20" x="576" y="471" style="fill:none;stroke:black;"/>
   <text width="86" height="20" x="581" y="485" style="fill:black;" font-family="Arial" font-size="16px">created_at</text>
   <rect width="86" height="20" x="576" y="491" style="fill:none;stroke:black;"/>
   <text width="86" height="20" x="581" y="505" style="fill:black;" font-family="Arial" font-size="16px">updated_at</text>
   <rect width="86" height="20" x="576" y="511" style="fill:none;stroke:black;"/>
   <text width="86" height="20" x="581" y="525" style="fill:black;" font-family="Arial" font-size="16px">user_id</text>
   <rect width="86" height="20" x="576" y="531" style="fill:none;stroke:black;"/>
   <text width="86" height="20" x="581" y="545" style="fill:black;" font-family="Arial" font-size="16px">folder_id</text>
   <rect width="86" height="20" x="576" y="551" style="fill:none;stroke:black;"/>
   <text width="86" height="20" x="581" y="565" style="fill:black;" font-family="Arial" font-size="16px">project_id</text>
   <rect width="65" height="20" x="1016" y="534" style="fill:#007;stroke:black;"/>
   <text width="65" height="20" x="1021" y="548" style="fill:#fff;" font-family="Arial" font-size="16px"> note_tag</text>
   <rect width="65" height="20" x="1016" y="554" style="fill:#aea;stroke:black;"/>
   <text width="65" height="20" x="1021" y="568" style="fill:black;" font-family="Arial" font-size="16px">note_id</text>
   <rect width="65" height="20" x="1016" y="574" style="fill:#aea;stroke:black;"/>
   <text width="65" height="20" x="1021" y="588" style="fill:black;" font-family="Arial" font-size="16px">tag_id</text>
   <rect width="94" height="20" x="966" y="228" style="fill:#007;stroke:black;"/>
   <text width="94" height="20" x="971" y="242" style="fill:#fff;" font-family="Arial" font-size="16px"> person</text>
   <rect width="94" height="20" x="966" y="248" style="fill:#aea;stroke:black;"/>
   <text width="94" height="20" x="971" y="262" style="fill:black;" font-family="Arial" font-size="16px">id</text>
   <rect width="94" height="20" x="966" y="268" style="fill:none;stroke:black;"/>
   <text width="94" height="20" x="971" y="282" style="fill:black;" font-family="Arial" font-size="16px">person_type</text>
   <rect width="94" height="20" x="966" y="288" style="fill:none;stroke:black;"/>
   <text width="94" height="20" x="971" y="302" style="fill:black;" font-family="Arial" font-size="16px">birth_date</text>
   <rect width="94" height="20" x="966" y="308" style="fill:none;stroke:black;"/>
   <text width="94" height="20" x="971" y="322" style="fill:black;" font-family="Arial" font-size="16px">address</text>
   <rect width="88" height="20" x="792" y="572" style="fill:#007;stroke:black;"/>
   <text width="88" height="20" x="797" y="586" style="fill:#fff;" font-family="Arial" font-size="16px"> project</text>
   <rect width="88" height="20" x="792" y="592" style="fill:#aea;stroke:black;"/>
   <text width="88" height="20" x="797" y="606" style="fill:black;" font-family="Arial" font-size="16px">id</text>
   <rect width="88" height="20" x="792" y="612" style="fill:none;stroke:black;"/>
   <text width="88" height="20" x="797" y="626" style="fill:black;" font-family="Arial" font-size="16px">name</text>
   <rect width="88" height="20" x="792" y="632" style="fill:none;stroke:black;"/>
   <text width="88" height="20" x="797" y="646" style="fill:black;" font-family="Arial" font-size="16px">description</text>
   <rect width="88" height="20" x="792" y="652" style="fill:none;stroke:black;"/>
   <text width="88" height="20" x="797" y="666" style="fill:black;" font-family="Arial" font-size="16px">start_date</text>
   <rect width="88" height="20" x="792" y="672" style="fill:none;stroke:black;"/>
   <text width="88" height="20" x="797" y="686" style="fill:black;" font-family="Arial" font-size="16px">end_date</text>
   <rect width="88" height="20" x="792" y="692" style="fill:none;stroke:black;"/>
   <text width="88" height="20" x="797" y="706" style="fill:black;" font-family="Arial" font-size="16px">user_id</text>
   <rect width="58" height="20" x="1021" y="404" style="fill:#007;stroke:black;"/>
   <text width="58" height="20" x="1026" y="418" style="fill:#fff;" font-family="Arial" font-size="16px"> role</text>
   <rect width="58" height="20" x="1021" y="424" style="fill:#aea;stroke:black;"/>
   <text width="58" height="20" x="1026" y="438" style="fill:black;" font-family="Arial" font-size="16px">id</text>
   <rect width="58" height="20" x="1021" y="444" style="fill:none;stroke:black;"/>
   <text width="58" height="20" x="1026" y="458" style="fill:black;" font-family="Arial" font-size="16px">name</text>
   <rect width="58" height="20" x="1021" y="464" style="fill:none;stroke:black;"/>
   <text width="58" height="20" x="1026" y="478" style="fill:black;" font-family="Arial" font-size="16px">user_id</text>
   <rect width="101" height="20" x="138" y="20" style="fill:#007;stroke:black;"/>
   <text width="101" height="20" x="143" y="34" style="fill:#fff;" font-family="Arial" font-size="16px"> searchlog</text>
   <rect width="101" height="20" x="138" y="40" style="fill:#aea;stroke:black;"/>
   <text width="101" height="20" x="143" y="54" style="fill:black;" font-family="Arial" font-size="16px">id</text>
   <rect width="101" height="20" x="138" y="60" style="fill:none;stroke:black;"/>
   <text width="101" height="20" x="143" y="74" style="fill:black;" font-family="Arial" font-size="16px">query</text>
   <rect width="101" height="20" x="138" y="80" style="fill:none;stroke:black;"/>
   <text width="101" height="20" x="143" y="94" style="fill:black;" font-family="Arial" font-size="16px">results_count</text>
   <rect width="101" height="20" x="138" y="100" style="fill:none;stroke:black;"/>
   <text width="101" height="20" x="143" y="114" style="fill:black;" font-family="Arial" font-size="16px">timestamp</text>
   <rect width="101" height="20" x="138" y="120" style="fill:none;stroke:black;"/>
   <text width="101" height="20" x="143" y="134" style="fill:black;" font-family="Arial" font-size="16px">user_id</text>
   <rect width="50" height="20" x="1018" y="642" style="fill:#007;stroke:black;"/>
   <text width="50" height="20" x="1023" y="656" style="fill:#fff;" font-family="Arial" font-size="16px"> tag</text>
   <rect width="50" height="20" x="1018" y="662" style="fill:#aea;stroke:black;"/>
   <text width="50" height="20" x="1023" y="676" style="fill:black;" font-family="Arial" font-size="16px">id</text>
   <rect width="50" height="20" x="1018" y="682" style="fill:none;stroke:black;"/>
   <text width="50" height="20" x="1023" y="696" style="fill:black;" font-family="Arial" font-size="16px">name</text>
   <rect width="118" height="20" x="564" y="63" style="fill:#007;stroke:black;"/>
   <text width="118" height="20" x="569" y="77" style="fill:#fff;" font-family="Arial" font-size="16px"> user</text>
   <rect width="118" height="20" x="564" y="83" style="fill:#aea;stroke:black;"/>
   <text width="118" height="20" x="569" y="97" style="fill:black;" font-family="Arial" font-size="16px">id</text>
   <rect width="118" height="20" x="564" y="103" style="fill:none;stroke:black;"/>
   <text width="118" height="20" x="569" y="117" style="fill:black;" font-family="Arial" font-size="16px">username</text>
   <rect width="118" height="20" x="564" y="123" style="fill:none;stroke:black;"/>
   <text width="118" height="20" x="569" y="137" style="fill:black;" font-family="Arial" font-size="16px">password_hash</text>
   <rect width="118" height="20" x="564" y="143" style="fill:none;stroke:black;"/>
   <text width="118" height="20" x="569" y="157" style="fill:black;" font-family="Arial" font-size="16px">email</text>
   <rect width="118" height="20" x="564" y="163" style="fill:none;stroke:black;"/>
   <text width="118" height="20" x="569" y="177" style="fill:black;" font-family="Arial" font-size="16px">first_name</text>
   <rect width="118" height="20" x="564" y="183" style="fill:none;stroke:black;"/>
   <text width="118" height="20" x="569" y="197" style="fill:black;" font-family="Arial" font-size="16px">last_name</text>
   <rect width="118" height="20" x="564" y="203" style="fill:none;stroke:black;"/>
   <text width="118" height="20" x="569" y="217" style="fill:black;" font-family="Arial" font-size="16px">created_at</text>
   <rect width="118" height="20" x="564" y="223" style="fill:none;stroke:black;"/>
   <text width="118" height="20" x="569" y="237" style="fill:black;" font-family="Arial" font-size="16px">is_active</text>
   <rect width="118" height="20" x="564" y="243" style="fill:none;stroke:black;"/>
   <text width="118" height="20" x="569" y="257" style="fill:black;" font-family="Arial" font-size="16px">birth_date</text>
   <rect width="118" height="20" x="564" y="263" style="fill:none;stroke:black;"/>
   <text width="118" height="20" x="569" y="277" style="fill:black;" font-family="Arial" font-size="16px">address</text>
   <rect width="118" height="20" x="564" y="283" style="fill:none;stroke:black;"/>
   <text width="118" height="20" x="569" y="297" style="fill:black;" font-family="Arial" font-size="16px">person_type</text>
   <rect width="148" height="20" x="1216" y="278" style="fill:#007;stroke:black;"/>
   <text width="148" height="20" x="1221" y="292" style="fill:#fff;" font-family="Arial" font-size="16px"> usernotessummary</text>
   <rect width="148" height="20" x="1216" y="298" style="fill:none;stroke:black;"/>
   <text width="148" height="20" x="1221" y="312" style="fill:black;" font-family="Arial" font-size="16px">user_id</text>
   <rect width="148" height="20" x="1216" y="318" style="fill:none;stroke:black;"/>
   <text width="148" height="20" x="1221" y="332" style="fill:black;" font-family="Arial" font-size="16px">username</text>
   <rect width="148" height="20" x="1216" y="338" style="fill:none;stroke:black;"/>
   <text width="148" height="20" x="1221" y="352" style="fill:black;" font-family="Arial" font-size="16px">note_count</text>
</svg>
